<svg width="41" height="13" viewBox="0 0 41 13" fill="none" xmlns="http://www.w3.org/2000/svg">
<path fill-rule="evenodd" clip-rule="evenodd" d="M10.8128 12.8359H7.32935L4.71726 3.03472C4.59326 2.58382 4.33002 2.18524 3.94278 1.99741C2.97643 1.52532 1.91154 1.14961 0.749817 0.960099V0.582762H6.3613C7.13573 0.582762 7.7166 1.14961 7.81338 1.8079L9.16873 8.87783L12.6504 0.582762H16.037L10.8128 12.8359ZM17.9731 12.8359H14.6833L17.3923 0.582762H20.6821L17.9731 12.8359ZM24.9382 3.97739C25.035 3.31747 25.6159 2.94014 26.2935 2.94014C27.3584 2.84538 28.5184 3.03484 29.4865 3.5053L30.0674 0.867142C29.0993 0.489805 28.0344 0.300293 27.068 0.300293C23.875 0.300293 21.5517 1.99758 21.5517 4.3531C21.5517 6.14508 23.1974 7.08601 24.3591 7.65286C25.6159 8.21808 26.0999 8.59542 26.0031 9.16058C26.0031 10.0084 25.035 10.3858 24.0686 10.3858C22.907 10.3858 21.7452 10.1031 20.6821 9.63104L20.1012 12.2708C21.2629 12.7413 22.5197 12.9308 23.6814 12.9308C27.2616 13.0239 29.4865 11.3283 29.4865 8.78324C29.4865 5.57829 24.9382 5.39041 24.9382 3.97739ZM40.9998 12.8359L38.3877 0.582762H35.582C35.0011 0.582762 34.4203 0.960099 34.2267 1.52532L29.3897 12.8359H32.7762L33.4522 11.0455H37.6132L38.0005 12.8359H40.9998ZM36.066 3.88275L37.0324 8.50077H34.3234L36.066 3.88275Z" fill="#172B85"/>
</svg>
